<svg width="411" height="113" viewBox="0 0 411 113" fill="none" xmlns="http://www.w3.org/2000/svg">
<path d="M410.5 52C410.5 54.4264 409.172 56.8634 406.49 59.2874C403.809 61.71 399.826 64.0705 394.651 66.3332C384.303 70.857 369.299 74.9428 350.72 78.3784C313.569 85.248 262.226 89.5 205.5 89.5C148.774 89.5 97.4305 85.248 60.2805 78.3784C41.7014 74.9428 26.6971 70.857 16.3495 66.3332C11.1739 64.0705 7.19124 61.71 4.51026 59.2874C1.82786 56.8634 0.5 54.4264 0.5 52C0.5 49.5736 1.82786 47.1366 4.51026 44.7126C7.19124 42.29 11.1739 39.9295 16.3495 37.6668C26.6971 33.143 41.7014 29.0572 60.2805 25.6216C97.4305 18.752 148.774 14.5 205.5 14.5C262.226 14.5 313.569 18.752 350.72 25.6216C369.299 29.0572 384.303 33.143 394.651 37.6668C399.826 39.9295 403.809 42.29 406.49 44.7126C409.172 47.1366 410.5 49.5736 410.5 52Z" stroke="white" stroke-opacity="0.4"/>
<path d="M392.632 35.6984C392.883 37.9272 391.935 40.3041 389.752 42.8116C387.57 45.3181 384.198 47.9025 379.729 50.5207C370.794 55.755 357.578 61.0638 341.041 66.1398C307.974 76.2894 261.727 85.4788 210.14 91.2954C158.554 97.112 111.422 98.4517 76.925 95.9202C59.6726 94.6541 45.6062 92.4215 35.73 89.3082C30.7901 87.751 26.9274 85.9823 24.2421 84.0245C21.5559 82.066 20.1017 79.9601 19.8504 77.7313C19.5991 75.5025 20.5478 73.1257 22.7305 70.6182C24.9124 68.1117 28.2842 65.5272 32.7534 62.9091C41.6884 57.6748 54.9044 52.3659 71.4417 47.2899C104.508 37.1403 150.756 27.951 202.342 22.1343C253.929 16.3177 301.061 14.9781 335.557 17.5096C352.81 18.7756 366.876 21.0083 376.753 24.1215C381.692 25.6787 385.555 27.4475 388.24 29.4052C390.927 31.3637 392.381 33.4696 392.632 35.6984Z" stroke="white" stroke-opacity="0.4"/>
</svg>
