<svg width="411" height="129" viewBox="0 0 411 129" fill="none" xmlns="http://www.w3.org/2000/svg">
<path d="M410.5 59.7744C410.5 62.2008 409.172 64.6378 406.49 67.0618C403.809 69.4845 399.826 71.8449 394.651 74.1076C384.303 78.6315 369.299 82.7173 350.72 86.1528C313.569 93.0224 262.226 97.2744 205.5 97.2744C148.774 97.2744 97.4305 93.0224 60.2805 86.1528C41.7014 82.7173 26.6971 78.6315 16.3495 74.1076C11.1739 71.8449 7.19124 69.4845 4.51026 67.0618C1.82786 64.6378 0.5 62.2008 0.5 59.7744C0.5 57.348 1.82786 54.911 4.51026 52.4871C7.19124 50.0644 11.1739 47.704 16.3495 45.4412C26.6971 40.9174 41.7014 36.8316 60.2805 33.396C97.4305 26.5264 148.774 22.2744 205.5 22.2744C262.226 22.2744 313.569 26.5264 350.72 33.396C369.299 36.8316 384.303 40.9174 394.651 45.4412C399.826 47.704 403.809 50.0644 406.49 52.4871C409.172 54.911 410.5 57.348 410.5 59.7744Z" stroke="white" stroke-opacity="0.4"/>
<path d="M391.471 94.0422C391.118 96.2571 389.568 98.294 386.795 100.127C384.023 101.959 380.083 103.549 375.077 104.878C365.068 107.534 350.914 109.119 333.621 109.591C299.045 110.536 252.024 107.034 200.759 98.8549C149.494 90.6758 103.717 79.3728 71.1515 67.7157C54.8647 61.8857 41.9064 55.9757 33.2211 50.3366C28.8769 47.516 25.6273 44.7795 23.5628 42.1754C21.4975 39.5704 20.6589 37.1525 21.0123 34.9376C21.3657 32.7227 22.915 30.6857 25.6883 28.8526C28.4606 27.0203 32.4004 25.4307 37.4067 24.102C47.4154 21.4455 61.5695 19.861 78.8618 19.3885C113.438 18.4435 160.459 21.9458 211.724 30.1248C262.989 38.3039 308.766 49.6069 341.332 61.2641C357.619 67.094 370.577 73.0041 379.262 78.6431C383.606 81.4637 386.856 84.2002 388.92 86.8043C390.986 89.4093 391.824 91.8272 391.471 94.0422Z" stroke="white" stroke-opacity="0.4"/>
</svg>
