<svg width="419" height="154" viewBox="0 0 419 154" fill="none" xmlns="http://www.w3.org/2000/svg">
<path d="M413.995 64.8728C414.465 72.1617 409.38 79.5894 399.459 86.783C389.562 93.9592 374.979 100.806 356.765 106.948C320.345 119.229 269.517 128.657 212.917 132.306C156.318 135.955 104.7 133.133 67.004 125.63C48.1523 121.878 32.8112 116.961 22.0746 111.115C11.3121 105.255 5.31479 98.5416 4.84484 91.2527C4.37489 83.9638 9.46043 76.5361 19.3813 69.3426C29.2783 62.1663 43.8609 55.3196 62.0748 49.1776C98.4953 36.8961 149.324 27.469 205.923 23.8198C262.522 20.1706 314.14 22.9924 351.836 30.4953C370.688 34.2475 386.029 39.1649 396.766 45.0108C407.528 50.8708 413.525 57.5839 413.995 64.8728Z" stroke="white" stroke-opacity="0.4"/>
<path d="M396.546 93.64C395.825 101.666 390.032 108.941 379.968 115.204C369.913 121.462 355.678 126.653 338.272 130.531C303.464 138.287 256.088 140.768 204.399 136.121C152.709 131.474 106.535 120.582 73.669 106.743C57.2334 99.8218 44.1531 92.1749 35.3754 84.224C26.5899 76.266 22.1877 68.0745 22.9092 60.0489C23.6307 52.0233 29.4234 44.7483 39.4874 38.4851C49.5426 32.2273 63.7771 27.036 81.1836 23.1575C115.991 15.402 163.368 12.9208 215.057 17.5678C266.746 22.2148 312.921 33.1065 345.786 46.9461C362.222 53.8671 375.302 61.5141 384.08 69.465C392.865 77.4229 397.268 85.6144 396.546 93.64Z" stroke="white" stroke-opacity="0.4"/>
</svg>
