<svg width="1193" height="1180" viewBox="0 0 1193 1180" fill="none" xmlns="http://www.w3.org/2000/svg">
<path d="M811.307 365.766C916.155 466.465 986.234 583.428 1014.81 691.087C1043.4 798.766 1030.43 896.96 969.501 960.402C908.57 1023.84 810.979 1040.76 702.234 1016.55C593.509 992.335 473.813 927.033 368.965 826.335C264.117 725.636 194.038 608.673 165.46 501.014C136.876 393.334 149.839 295.141 210.771 231.699C271.702 168.256 369.293 151.341 478.038 175.555C586.763 199.766 706.459 265.067 811.307 365.766Z" stroke="black" stroke-width="2"/>
<g filter="url(#filter0_d_231_3)">
<circle cx="575.5" cy="970.5" r="32.5" fill="#F22222"/>
</g>
<path d="M573.524 962.994L572.411 965.084L561.186 964.038L568.32 972.767L567.208 974.857L558.541 963.899L559.594 961.921L573.524 962.994ZM583.962 968.552L592.628 979.511L591.575 981.488L577.645 980.415L578.758 978.325L589.983 979.371L582.849 970.642L583.962 968.552Z" fill="black"/>
<defs>
<filter id="filter0_d_231_3" x="537" y="933" width="83" height="83" filterUnits="userSpaceOnUse" color-interpolation-filters="sRGB">
<feFlood flood-opacity="0" result="BackgroundImageFix"/>
<feColorMatrix in="SourceAlpha" type="matrix" values="0 0 0 0 0 0 0 0 0 0 0 0 0 0 0 0 0 0 127 0" result="hardAlpha"/>
<feOffset dx="3" dy="4"/>
<feGaussianBlur stdDeviation="4.5"/>
<feComposite in2="hardAlpha" operator="out"/>
<feColorMatrix type="matrix" values="0 0 0 0 0.400833 0 0 0 0 0.110897 0 0 0 0 0.110897 0 0 0 0.25 0"/>
<feBlend mode="normal" in2="BackgroundImageFix" result="effect1_dropShadow_231_3"/>
<feBlend mode="normal" in="SourceGraphic" in2="effect1_dropShadow_231_3" result="shape"/>
</filter>
</defs>
</svg>
